# xmcd
#
# Track frame offsets:
#	150
#	22591
#	42413
#	61869
#	83084
#	100978
#	122879
#	147328
#	166842
#	184459
#
# Disc length: 2731 seconds
#
# Revision: 0
# Processed by: cddbd v1.5.1PL2 Copyright (c) Steve Scherf et al.
# Submitted via: dBpowerAMP V4.0
#
DISCID=7f0aa90a
DTITLE=陈坤 - 再一次实现
DYEAR=2006
DGENRE=
TTITLE0=LYDIA
TTITLE1=轮回的天使
TTITLE2=幻觉
TTITLE3=太认真
TTITLE4=再一次实现
TTITLE5=Don't Say Goodbye
TTITLE6=幸福中
TTITLE7=淡淡忧郁
TTITLE8=一个人去流浪
TTITLE9=明天
EXTD=
EXTT0=
EXTT1=
EXTT2=
EXTT3=
EXTT4=
EXTT5=
EXTT6=
EXTT7=
EXTT8=
EXTT9=
PLAYORDER=
